<svg xmlns="http://www.w3.org/2000/svg" viewBox="42.1 596.4 42.5 51">
	<path
		d="M83.5,611.8c-0.4-1-1-1.9-1.6-2.5l-10.2-10.2c-0.6-0.6-1.4-1.1-2.5-1.6c-1-0.4-2-0.6-2.9-0.6H45.6c-0.9,0-1.6,0.3-2.2,0.9
		c-0.6,0.6-0.9,1.3-0.9,2.2v43.8c0,0.9,0.3,1.6,0.9,2.2c0.6,0.6,1.3,0.9,2.2,0.9H81c0.9,0,1.6-0.3,2.2-0.9c0.6-0.6,0.9-1.3,0.9-2.2
		v-29.2C84.1,613.8,83.9,612.8,83.5,611.8z M67.5,601.4c0.6,0.2,1.1,0.5,1.3,0.7L79,612.3c0.3,0.3,0.5,0.7,0.7,1.3H67.5V601.4z
		 M80,642.8H46.6v-41.7h16.7v13.5c0,0.9,0.3,1.6,0.9,2.2c0.6,0.6,1.3,0.9,2.2,0.9H80L80,642.8L80,642.8z"/>
	<path class="st0" d="M74.8,629.7h-4.1v-4.1c0-1.1-0.9-2-2-2s-2,0.9-2,2v4.1h-4.1c-1.1,0-2,0.9-2,2s0.9,2,2,2h4.1v4.1
	c0,1.1,0.9,2,2,2s2-0.9,2-2v-4.1h4.1c1.1,0,2-0.9,2-2S75.9,629.7,74.8,629.7z"/>
</svg>
