<svg xmlns="http://www.w3.org/2000/svg" viewBox="21.1 593.2 42.5 51">
	<path
		d="M62.5,608.6c-0.4-1-1-1.9-1.6-2.5L50.8,596c-0.6-0.6-1.4-1.1-2.5-1.6s-2-0.6-2.9-0.6H24.6c-0.9,0-1.6,0.3-2.2,0.9
	c-0.6,0.6-0.9,1.3-0.9,2.2v43.8c0,0.9,0.3,1.6,0.9,2.2c0.6,0.6,1.3,0.9,2.2,0.9H60c0.9,0,1.6-0.3,2.2-0.9c0.6-0.6,0.9-1.3,0.9-2.2
	v-29.2C63.1,610.6,62.9,609.6,62.5,608.6z M46.5,598.2c0.6,0.2,1.1,0.5,1.3,0.7L58,609.1c0.3,0.3,0.5,0.7,0.7,1.3H46.5V598.2z
	 M59,639.6H25.6v-41.7h16.7v13.5c0,0.9,0.3,1.6,0.9,2.2c0.6,0.6,1.3,0.9,2.2,0.9H59L59,639.6L59,639.6z"/>
	<path d="M56.8,622.5c-0.7-0.6-1.7-0.5-2.3,0.1l-9.1,10.1l-4.5-4.4c-0.7-0.6-1.7-0.6-2.3,0.1c-0.6,0.7-0.6,1.7,0.1,2.3l5.8,5.6
		c0.3,0.3,0.7,0.5,1.2,0.5c0,0,0,0,0.1,0c0.4,0,0.9-0.2,1.2-0.5l10.2-11.3C57.5,624.1,57.5,623.1,56.8,622.5z"/>
</svg>
