<svg xmlns="http://www.w3.org/2000/svg" viewBox="153 399.8 51 43.2">
	<path
		d="M201.6,409.9c-1.3-1.3-2.9-2-4.7-2h-20.2v-1c0-1.8-0.7-3.4-2-4.7c-1.3-1.3-2.9-2-4.7-2h-9.6c-1.8,0-3.4,0.7-4.7,2
		c-1.3,1.3-2,2.9-2,4.7v28.8c0,1.8,0.7,3.4,2,4.7c1.3,1.3,2.9,2,4.7,2h36.5c1.8,0,3.4-0.7,4.7-2c1.3-1.3,2-2.9,2-4.7v-21.2
		C203.5,412.8,202.9,411.2,201.6,409.9z M199.7,435.8c0,0.8-0.3,1.5-0.8,2c-0.6,0.6-1.2,0.8-2,0.8h-36.5c-0.8,0-1.5-0.3-2-0.8
		c-0.6-0.6-0.8-1.2-0.8-2v-28.8c0-0.8,0.3-1.5,0.8-2c0.6-0.6,1.2-0.8,2-0.8h9.6c0.8,0,1.5,0.3,2,0.8c0.6,0.6,0.8,1.2,0.8,2v1.9
		c0,0.8,0.3,1.5,0.8,2c0.6,0.6,1.2,0.8,2,0.8h21.2c0.8,0,1.5,0.3,2,0.8c0.6,0.6,0.8,1.2,0.8,2L199.7,435.8L199.7,435.8z"/>
</svg>
