<svg xmlns="http://www.w3.org/2000/svg" viewBox="88 571.4 51 43.1">
	<path
		d="M136.5,581.5c-1.3-1.3-2.9-2-4.7-2h-20.2v-1c0-1.8-0.7-3.4-2-4.7c-1.3-1.3-2.9-2-4.7-2h-9.6c-1.8,0-3.4,0.7-4.7,2
		c-1.3,1.3-2,2.9-2,4.7v28.9c0,1.8,0.7,3.4,2,4.7c1.3,1.3,2.9,2,4.7,2h36.5c1.8,0,3.4-0.7,4.7-2c1.3-1.3,2-2.9,2-4.7v-21.2
		C138.5,584.4,137.8,582.8,136.5,581.5z M134.7,607.4c0,0.8-0.3,1.5-0.8,2c-0.6,0.6-1.2,0.8-2,0.8H95.2c-0.8,0-1.5-0.3-2-0.8
		c-0.6-0.6-0.8-1.2-0.8-2v-28.9c0-0.8,0.3-1.5,0.8-2c0.6-0.6,1.2-0.8,2-0.8h9.6c0.8,0,1.5,0.3,2,0.8s0.8,1.2,0.8,2v1.9
		c0,0.8,0.3,1.5,0.8,2c0.6,0.6,1.2,0.8,2,0.8h21.2c0.8,0,1.5,0.3,2,0.8c0.6,0.6,0.8,1.2,0.8,2L134.7,607.4L134.7,607.4z"/>
	<path
		d="M129.3,602.4l-3-3.1l3.1-3c0.9-0.8,0.9-2.2,0-3.1c-0.8-0.9-2.2-0.9-3.1,0l-3.1,3l-3-3.1c-0.8-0.9-2.2-0.9-3.1,0
	c-0.9,0.8-0.9,2.2,0,3.1l3,3.1l-3.1,3c-0.9,0.8-0.9,2.2,0,3.1c0.8,0.9,2.2,0.9,3.1,0l3.1-3l3,3.1c0.8,0.9,2.2,0.9,3.1,0
	S130.1,603.2,129.3,602.4z"/>
</svg>
