<svg xmlns="http://www.w3.org/2000/svg" viewBox="222.7 623.6 51 35.4">
	<path
		d="M272.8,642.1c-0.4-0.8-0.9-1.3-1.7-1.7c-0.7-0.4-1.6-0.6-2.4-0.6c-1.3,0-3.7,0-4.5,0v-4c0-1.5-0.5-2.8-1.6-3.9
	c-1.1-1.1-2.4-1.6-3.9-1.6h-16.6v-0.8c0-1.5-0.5-2.8-1.6-3.9c-1.1-1.1-2.4-1.6-3.9-1.6h-7.9c-1.5,0-2.8,0.5-3.9,1.6
	c-1.1,1.1-1.6,2.4-1.6,3.9v23.7c0,1.5,0.5,2.8,1.6,3.9c1.1,1.1,2.4,1.6,3.9,1.6l0,0h29.7c1.1,0,2.3-0.3,3.5-0.9
	c1.2-0.6,2.2-1.3,2.9-2.2l7.3-9c0.8-1,1.1-1.9,1.1-3C273.2,643.1,273,642.6,272.8,642.1z M227,627.8c0.5-0.5,1-0.7,1.7-0.7h7.9
	c0.7,0,1.2,0.2,1.7,0.7c0.5,0.5,0.7,1,0.7,1.7v1.6c0,0.7,0.2,1.2,0.7,1.7s1,0.7,1.7,0.7h17.4c0.7,0,1.2,0.2,1.7,0.7
	c0.5,0.5,0.7,1,0.7,1.7v4c-5.9,0-19.2,0-22.1,0c-1.1,0-2.3,0.3-3.5,0.9c-1.2,0.6-2.1,1.3-2.9,2.2c-2.1,2.6-6.3,7.8-6.3,7.8l0,0
	v-21.1C226.3,628.8,226.5,628.2,227,627.8z M269.6,644.7l-7.3,9c-0.4,0.5-1,0.9-1.8,1.3c-0.7,0.4-1.4,0.5-2.1,0.5h-9.2h-20.6h0
	c-0.3,0-0.6-0.1-0.9-0.2c-0.3-0.1-0.4-0.4-0.4-0.7c0-0.3,0.1-0.6,0.4-1l7.3-9c0.4-0.5,1-0.9,1.8-1.3c0.8-0.4,1.5-0.5,2.1-0.5h11.4
	h18.3c0.9,0,1.3,0.3,1.3,0.9C270,644,269.9,644.3,269.6,644.7z"/>
</svg>
