<svg xmlns="http://www.w3.org/2000/svg" viewBox="25.1 606.8 42.5 51">
	<path
		d="M66.5,622.2c-0.4-1-1-1.9-1.6-2.5l-10.2-10.2c-0.6-0.6-1.4-1.1-2.5-1.6s-2-0.6-2.9-0.6H28.6c-0.9,0-1.6,0.3-2.2,0.9
		c-0.6,0.6-0.9,1.3-0.9,2.2v43.8c0,0.9,0.3,1.6,0.9,2.2c0.6,0.6,1.3,0.9,2.2,0.9H64c0.9,0,1.6-0.3,2.2-0.9c0.6-0.6,0.9-1.3,0.9-2.2
		v-29.2C67.1,624.2,66.9,623.2,66.5,622.2z M50.5,611.8c0.6,0.2,1.1,0.5,1.3,0.7L62,622.7c0.3,0.3,0.5,0.7,0.7,1.3H50.5V611.8z
		 M63,653.2H29.6v-41.7h16.7v13.5c0,0.9,0.3,1.6,0.9,2.2s1.3,0.9,2.2,0.9H63L63,653.2L63,653.2z"/>
	<path
		d="M57.4,645.1l-2.9-2.9l2.9-2.9c0.8-0.8,0.8-2.1,0-2.9c-0.8-0.8-2.1-0.8-2.9,0l-2.9,2.9l-2.9-2.9
	c-0.8-0.8-2.1-0.8-2.9,0c-0.8,0.8-0.8,2.1,0,2.9l2.9,2.9l-2.9,2.9c-0.8,0.8-0.8,2.1,0,2.9c0.8,0.8,2.1,0.8,2.9,0l2.9-2.9l2.9,2.9
	c0.8,0.8,2.1,0.8,2.9,0C58.2,647.2,58.2,645.9,57.4,645.1z"/>
</svg>
