<svg xmlns="http://www.w3.org/2000/svg" viewBox="120 395.1 42.5 51">
	<path
		d="M161.4,410.5c-0.4-1-1-1.9-1.6-2.5l-10.2-10.2c-0.6-0.6-1.4-1.1-2.5-1.6c-1-0.4-2-0.7-2.9-0.7h-20.8
		c-0.9,0-1.6,0.3-2.2,0.9c-0.6,0.6-0.9,1.3-0.9,2.2v43.8c0,0.9,0.3,1.6,0.9,2.2c0.6,0.6,1.3,0.9,2.2,0.9H159c0.9,0,1.6-0.3,2.2-0.9
		c0.6-0.6,0.9-1.3,0.9-2.2v-29.2C162.1,412.5,161.9,411.5,161.4,410.5z M145.4,400.1c0.6,0.2,1.1,0.5,1.3,0.7L157,411
		c0.3,0.3,0.5,0.7,0.7,1.3h-12.2V400.1z M157.9,441.5h-33.3v-41.7h16.7v13.5c0,0.9,0.3,1.6,0.9,2.2c0.6,0.6,1.3,0.9,2.2,0.9h13.5
		V441.5z"/>
</svg>
