<svg xmlns="http://www.w3.org/2000/svg" viewBox="32.6 596.5 42.5 51">
	<path
		d="M74,611.9c-0.4-1-1-1.9-1.6-2.5l-10.2-10.2c-0.6-0.6-1.4-1.1-2.5-1.6s-2-0.6-2.9-0.6H36.1c-0.9,0-1.6,0.3-2.2,0.9
		c-0.6,0.6-0.9,1.3-0.9,2.2v43.8c0,0.9,0.3,1.6,0.9,2.2c0.6,0.6,1.3,0.9,2.2,0.9h35.4c0.9,0,1.6-0.3,2.2-0.9
		c0.6-0.6,0.9-1.3,0.9-2.2v-29.2C74.6,613.9,74.4,612.9,74,611.9z M58,601.5c0.6,0.2,1.1,0.5,1.3,0.7l10.2,10.2
		c0.3,0.3,0.5,0.7,0.7,1.3H58V601.5z M70.5,642.9H37.1v-41.7h16.7v13.5c0,0.9,0.3,1.6,0.9,2.2c0.6,0.6,1.3,0.9,2.2,0.9h13.5
		L70.5,642.9L70.5,642.9L70.5,642.9z"/>
	<path d="M52.6,635.1l9.6-9.6l3.1,3.1l-9.6,9.6L52.6,635.1z"/>
	<path d="M51,639.7l3.4-0.9l-2.5-2.5L51,639.7z"/>
	<path d="M66.1,623.9c-0.6-0.6-1.7-0.6-2.3,0l-0.7,0.7l3.1,3.1l0.7-0.7c0.6-0.6,0.6-1.7,0-2.3L66.1,623.9z"/>
</svg>
