<svg xmlns="http://www.w3.org/2000/svg" viewBox="-272.5 399.1 51 43.2">
	<path
		d="M-224.1,409.3c-1.3-1.3-2.9-2-4.7-2H-249v-1c0-1.8-0.7-3.4-2-4.7s-2.9-2-4.7-2h-9.6c-1.8,0-3.4,0.7-4.7,2s-2,2.9-2,4.7v29
		c0,1.8,0.7,3.4,2,4.7c1.3,1.3,2.9,2,4.7,2h36.6c1.8,0,3.4-0.7,4.7-2c1.3-1.3,2-2.9,2-4.7V414C-222,412.2-222.8,410.6-224.1,409.3z
		 M-225.9,435.2c0,0.8-0.3,1.5-0.8,2c-0.5,0.5-1.2,0.8-2,0.8h-36.6c-0.8,0-1.5-0.3-2-0.8c-0.6-0.6-0.8-1.2-0.8-2v-29
		c0-0.8,0.3-1.5,0.8-2c0.6-0.6,1.2-0.8,2-0.8h9.6c0.8,0,1.5,0.3,2,0.8c0.6,0.6,0.8,1.2,0.8,2v1.9c0,0.8,0.3,1.5,0.8,2
		c0.6,0.6,1.2,0.8,2,0.8h21.2c0.8,0,1.5,0.3,2,0.8c0.6,0.6,0.8,1.2,0.8,2L-225.9,435.2L-225.9,435.2z"/>
	<path d="M-230.9,424.9h-4.3v-4.3c0-1.2-1-2.2-2.2-2.2c-1.2,0-2.2,1-2.2,2.2v4.3h-4.3c-1.2,0-2.2,1-2.2,2.2c0,1.2,1,2.2,2.2,2.2h4.3
		v4.3c0,1.2,1,2.2,2.2,2.2c1.2,0,2.2-1,2.2-2.2v-4.3h4.3c1.2,0,2.2-1,2.2-2.2C-228.7,425.9-229.7,424.9-230.9,424.9z"/>
</svg>
